# xmcd CD database file
#
# Track frame offsets:
#	150
#	17920
#	36419
#	58015
#	82220
#	132559
#	148035
#	199150
#
# Disc length: 2866 seconds
#
# Revision: 0
# Processed by: cddbd v1.5PL3 Copyright (c) Steve Scherf et al.
# Submitted via: CDex 1.50
#
DISCID=7c0b3008
DTITLE=Fire Wire - Pure Guitar
DYEAR=2003
DGENRE=Jazz
TTITLE0=blue bossa
TTITLE1=Stella by starlight
TTITLE2=the girl from ipanema
TTITLE3=satin doll
TTITLE4=all the things
TTITLE5=now's the time
TTITLE6=blue bossa (2)
TTITLE7=i wish
EXTD=YEAR: 2003
EXTT0=
EXTT1=
EXTT2=
EXTT3=
EXTT4=
EXTT5=
EXTT6=
EXTT7=
PLAYORDER=
